<?xml version="1.0" encoding="UTF-8" standalone="no"?>
<svg
   xmlns:dc="http://purl.org/dc/elements/1.1/"
   xmlns:cc="http://creativecommons.org/ns#"
   xmlns:rdf="http://www.w3.org/1999/02/22-rdf-syntax-ns#"
   xmlns:svg="http://www.w3.org/2000/svg"
   xmlns="http://www.w3.org/2000/svg"
   xmlns:sodipodi="http://sodipodi.sourceforge.net/DTD/sodipodi-0.dtd"
   xmlns:inkscape="http://www.inkscape.org/namespaces/inkscape"
   width="1024"
   height="1024"
   viewBox="0 0 270.93333 270.93334"
   version="1.1"
   id="svg5232"
   inkscape:version="0.92.4 (5da689c313, 2019-01-14)"
   sodipodi:docname="Pixiv Icon.svg">
  <defs
     id="defs5226" />
  <sodipodi:namedview
     id="base"
     pagecolor="#ffffff"
     bordercolor="#666666"
     borderopacity="1.0"
     inkscape:pageopacity="0.0"
     inkscape:pageshadow="2"
     inkscape:zoom="0.24748737"
     inkscape:cx="668.72786"
     inkscape:cy="1313.3379"
     inkscape:document-units="mm"
     inkscape:current-layer="layer1"
     showgrid="false"
     inkscape:window-width="1920"
     inkscape:window-height="1017"
     inkscape:window-x="-8"
     inkscape:window-y="-8"
     inkscape:window-maximized="1"
     inkscape:lockguides="true"
     units="px" />
  <metadata
     id="metadata5229">
    <rdf:RDF>
      <cc:Work
         rdf:about="">
        <dc:format>image/svg+xml</dc:format>
        <dc:type
           rdf:resource="http://purl.org/dc/dcmitype/StillImage" />
        <dc:title></dc:title>
      </cc:Work>
    </rdf:RDF>
  </metadata>
  <g
     inkscape:label="Layer 1"
     inkscape:groupmode="layer"
     id="layer1"
     style="display:inline"
     transform="translate(0,-26.06665)">
    <g
       id="g5864"
       transform="matrix(0.99560526,0,0,0.99560526,-52.05052,103.00177)">
      <rect
            rx="54.504166"
            ry="54.504166"
            y="-76.676727"
            x="52.878269"
            height="270.93329"
            width="270.93329"
            id="rect5116"
            style="display:inline;opacity:1;vector-effect:none;fill:#7686e8;fill-opacity:1;stroke:#7686e8;stroke-width:1.19598114;stroke-linecap:square;stroke-linejoin:miter;stroke-miterlimit:4;stroke-dasharray:none;stroke-dashoffset:0;stroke-opacity:1;paint-order:normal" />
      <path
         sodipodi:nodetypes="cccccccccccsccccccccccccc"
         style="fill:#ffffff;fill-rule:evenodd;stroke-width:3.26935315"
         inkscape:connector-curvature="0"
         id="path4528"
         d="m 257.87529,-4.444628 c -15.1698,-13.162442 -36.40097,-20.760407 -61.08131,-20.760407 -64.33106,0.0034 -108.081548,49.31823 -108.081548,49.31823 l 12.325448,19.43626 c 0,0 6.82642,0.56889 3.21377,-10.8804 3.11898,-5.8521 9.21959,-13.731327 21.13965,-22.820066 V 139.31537 c -5.13943,1.43848 -11.93313,4.14555 -7.30373,8.74553 h 35.42344 c 4.67518,-4.64248 -2.69069,-7.44108 -7.17623,-8.74553 v -30.54228 c 0,0 24.28149,9.46801 50.4592,9.46801 22.99666,0 43.92375,-6.80022 59.48915,-19.076665 15.56213,-12.20449 25.59902,-30.43112 25.53365,-51.26349 0.0461,-20.45628 -8.76841,-39.232172 -23.94474,-52.342332 z m -18.7726,93.389083 c -10.76273,10.55346 -26.4164,17.229495 -44.46974,17.216405 -20.14576,0.0114 -37.10064,-3.86435 -48.29817,-9.340595 V -0.308863 c 12.28623,-8.673623 32.20967,-14.015773 48.29817,-13.983062 19.55074,0.01706 34.89709,7.356017 45.28053,18.484905 10.35731,11.2008 16.01333,26.079635 16.06559,43.374535 -0.0655,16.85027 -6.11367,30.73195 -16.87638,41.37364 z" />
    </g>
  </g>
</svg>